<svg xmlns="http://www.w3.org/2000/svg" version="1.1" xmlns:xlink="http://www.w3.org/1999/xlink" xmlns:svgjs="http://svgjs.dev/svgjs" width="1500" height="1500" viewBox="0 0 1500 1500"><rect width="1500" height="1500" fill="#02704b"></rect><g transform="matrix(0.6666666666666666,0,0,0.6666666666666666,250.39217710494614,317.0175438596491)"><svg viewBox="0 0 285 247" data-background-color="#02704b" preserveAspectRatio="xMidYMid meet" height="1300" width="1500" xmlns="http://www.w3.org/2000/svg" xmlns:xlink="http://www.w3.org/1999/xlink"><g id="tight-bounds" transform="matrix(1,0,0,1,-0.11177047490966174,-0.09999999999999432)"><svg viewBox="0 0 285.2235409498193 247.2" height="247.2" width="285.2235409498193"><g><svg viewBox="0 0 395.52 342.7926870075621" height="247.2" width="285.2235409498193"><g transform="matrix(1,0,0,1,0,269.9831471459349)"><svg viewBox="0 0 395.52 72.8095398616272" height="72.8095398616272" width="395.52"><g id="textblocktransform"><svg viewBox="0 0 395.52 72.8095398616272" height="72.8095398616272" width="395.52" id="textblock"><g><svg viewBox="0 0 395.52 43.29417161580995" height="43.29417161580995" width="395.52"><g transform="matrix(1,0,0,1,0,0)"><svg width="395.52" viewBox="5.03 -39.11 476.81 52.2" height="43.29417161580995" data-palette-color="#eeddc1"><path d="M26.32 0L5.03 0 5.03-35.77 26.78-35.77 25.98-31.47 11.08-31.47 11.08-20.68 24.27-20.68 23.49-16.5 11.08-16.5 11.08-4.3 27.12-4.3 26.32 0ZM34.32 0L34.32-39.11 40.23-39.11 40.23 0 34.32 0ZM69.55-5.32L69.55-2.37Q68.48-1.61 67.23-1.07 65.99-0.54 64.67-0.18 63.35 0.17 62.04 0.33 60.74 0.49 59.57 0.49L59.57 0.49Q56.86 0.49 54.52-0.34 52.19-1.17 50.47-2.78 48.75-4.39 47.77-6.75 46.8-9.11 46.8-12.16L46.8-12.16Q46.8-15.41 47.9-18.04 48.99-20.68 50.84-22.52 52.68-24.37 55.11-25.37 57.54-26.37 60.18-26.37L60.18-26.37Q62.37-26.37 64.27-25.65 66.16-24.93 67.54-23.51 68.92-22.09 69.7-19.97 70.48-17.85 70.48-15.04L70.48-15.04Q70.48-14.36 70.42-13.59 70.36-12.82 70.21-12.08L70.21-12.08 52.92-12.08Q52.92-10.11 53.62-8.59 54.32-7.08 55.59-6.07 56.86-5.05 58.64-4.53 60.42-4 62.57-4L62.57-4Q63.18-4 64-4.05 64.81-4.1 65.74-4.25 66.67-4.39 67.65-4.65 68.62-4.91 69.55-5.32L69.55-5.32ZM52.92-14.97L64.99-14.97Q64.99-16.75 64.53-18.09 64.08-19.43 63.3-20.34 62.52-21.24 61.48-21.69 60.44-22.14 59.25-22.14L59.25-22.14Q57.91-22.14 56.76-21.61 55.61-21.07 54.76-20.1 53.9-19.14 53.41-17.82 52.92-16.5 52.92-14.97L52.92-14.97ZM95.94-5.32L95.94-2.37Q94.21-0.98 92.08-0.24 89.96 0.49 87.52 0.49L87.52 0.49Q84.78 0.49 82.59-0.43 80.39-1.34 78.85-2.97 77.31-4.59 76.48-6.85 75.65-9.11 75.65-11.82L75.65-11.82Q75.65-15.01 76.77-17.69 77.9-20.36 79.84-22.29 81.78-24.22 84.42-25.29 87.05-26.37 90.08-26.37L90.08-26.37Q90.74-26.37 91.5-26.31 92.25-26.25 93.05-26.12 93.84-26 94.61-25.79 95.38-25.59 96.04-25.29L96.04-25.29 94.99-20.75 94.47-20.51Q94.04-20.83 93.44-21.13 92.84-21.44 92.16-21.66 91.47-21.88 90.74-22.01 90.01-22.14 89.3-22.14L89.3-22.14Q87.74-22.14 86.38-21.53 85.03-20.92 84.01-19.75 83-18.58 82.41-16.88 81.83-15.19 81.83-13.04L81.83-13.04Q81.83-10.79 82.46-9.11 83.1-7.42 84.22-6.29 85.34-5.15 86.88-4.58 88.42-4 90.23-4L90.23-4Q91.35-4 92.79-4.27 94.23-4.54 95.94-5.32L95.94-5.32ZM105.34-7.15L105.34-21.66 100.14-21.66 100.58-24.44Q102.5-24.93 103.66-25.54 104.82-26.15 105.59-27.04 106.36-27.93 106.94-29.21 107.51-30.49 108.27-32.32L108.27-32.32 111.1-32.32 111.1-25.88 120.4-25.88 119.35-21.66 111.27-21.66 111.27-8.33Q111.27-7.13 111.61-6.31 111.95-5.49 112.59-4.98 113.22-4.47 114.11-4.24 115-4 116.13-4L116.13-4Q117.2-4 118.26-4.2 119.33-4.39 120.28-4.76L120.28-4.76 120.28-1.78Q118.62-0.66 116.73-0.09 114.83 0.49 112.91 0.49L112.91 0.49Q109.22 0.49 107.28-1.51 105.34-3.52 105.34-7.15L105.34-7.15ZM126.97 0L126.97-25.88 131.75-25.88 132.58-18.16Q132.92-18.8 133.29-19.47 133.65-20.14 134.02-20.76 134.39-21.39 134.7-21.9 135.02-22.41 135.24-22.75L135.24-22.75Q135.75-23.51 136.4-24.18 137.05-24.85 137.8-25.33 138.56-25.81 139.44-26.09 140.32-26.37 141.34-26.37L141.34-26.37Q142.05-26.37 142.76-26.2 143.47-26.03 143.96-25.66L143.96-25.66 143.32-20.21Q142.88-20.34 142.3-20.37 141.71-20.41 141.25-20.41L141.25-20.41Q139.68-20.41 138.46-19.96 137.24-19.51 136.25-18.71 135.27-17.92 134.45-16.85 133.63-15.77 132.87-14.53L132.87-14.53 132.87 0 126.97 0ZM149.47 0L149.47-25.88 155.4-25.88 155.4 0 149.47 0ZM152.43-30.98L152.43-30.98Q151.65-30.98 151-31.24 150.35-31.49 149.88-31.93 149.4-32.37 149.14-32.98 148.89-33.59 148.89-34.3L148.89-34.3Q148.89-35.03 149.17-35.66 149.45-36.28 149.95-36.76 150.45-37.23 151.12-37.5 151.79-37.77 152.57-37.77L152.57-37.77Q153.33-37.77 153.96-37.5 154.6-37.23 155.06-36.78 155.53-36.33 155.8-35.71 156.06-35.08 156.06-34.38L156.06-34.38Q156.06-33.64 155.78-33.02 155.5-32.4 155-31.95 154.5-31.49 153.84-31.24 153.18-30.98 152.43-30.98ZM182.31-5.32L182.31-2.37Q180.57-0.98 178.45-0.24 176.33 0.49 173.88 0.49L173.88 0.49Q171.15 0.49 168.95-0.43 166.75-1.34 165.22-2.97 163.68-4.59 162.85-6.85 162.02-9.11 162.02-11.82L162.02-11.82Q162.02-15.01 163.14-17.69 164.26-20.36 166.21-22.29 168.15-24.22 170.78-25.29 173.42-26.37 176.45-26.37L176.45-26.37Q177.11-26.37 177.86-26.31 178.62-26.25 179.41-26.12 180.21-26 180.98-25.79 181.75-25.59 182.4-25.29L182.4-25.29 181.35-20.75 180.84-20.51Q180.4-20.83 179.8-21.13 179.21-21.44 178.52-21.66 177.84-21.88 177.11-22.01 176.37-22.14 175.67-22.14L175.67-22.14Q174.1-22.14 172.75-21.53 171.39-20.92 170.38-19.75 169.37-18.58 168.78-16.88 168.2-15.19 168.2-13.04L168.2-13.04Q168.2-10.79 168.83-9.11 169.46-7.42 170.59-6.29 171.71-5.15 173.25-4.58 174.79-4 176.59-4L176.59-4Q177.72-4 179.16-4.27 180.6-4.54 182.31-5.32L182.31-5.32ZM203.23-3.81L203.23-3.81Q202.59-3.27 201.7-2.53 200.81-1.78 199.72-1.11 198.64-0.44 197.36 0.02 196.07 0.49 194.66 0.49L194.66 0.49Q193.22 0.49 191.98-0.04 190.75-0.56 189.84-1.5 188.92-2.44 188.4-3.75 187.87-5.05 187.87-6.64L187.87-6.64Q187.87-8.3 188.54-9.89 189.21-11.47 190.79-12.72 192.36-13.96 194.95-14.73 197.54-15.5 201.35-15.5L201.35-15.5 203.13-15.5 203.13-17.5Q203.13-18.58 202.76-19.43 202.4-20.29 201.74-20.9 201.08-21.51 200.16-21.83 199.25-22.14 198.12-22.14L198.12-22.14Q197.25-22.14 196.24-21.94 195.24-21.73 194.27-21.36 193.29-21 192.36-20.5 191.44-20 190.7-19.41L190.7-19.41 190.26-19.65 189.14-23.75Q192.09-25.29 194.63-25.83 197.17-26.37 199.39-26.37L199.39-26.37Q201.69-26.37 203.48-25.9 205.28-25.44 206.52-24.48 207.77-23.51 208.42-22.03 209.06-20.56 209.06-18.53L209.06-18.53 209.06-6.57Q209.06-6.2 209.12-5.76 209.18-5.32 209.37-4.93 209.55-4.54 209.9-4.27 210.26-4 210.84-4L210.84-4Q211.19-4 211.67-4.1 212.16-4.2 212.65-4.42L212.65-4.42 212.65-1.49Q211.33-0.59 210.03-0.05 208.72 0.49 207.48 0.49L207.48 0.49Q206.5 0.49 205.79 0.12 205.08-0.24 204.59-0.84 204.11-1.44 203.78-2.21 203.45-2.98 203.23-3.81ZM203.13-6.96L203.13-12.62 201.59-12.62Q199.05-12.62 197.5-12.27 195.95-11.91 195.1-11.29 194.24-10.67 193.96-9.85 193.68-9.03 193.68-8.08L193.68-8.08Q193.68-7.08 193.97-6.32 194.27-5.57 194.77-5.05 195.27-4.54 195.95-4.27 196.64-4 197.42-4L197.42-4Q198-4 198.64-4.14 199.27-4.27 199.97-4.61 200.66-4.96 201.44-5.52 202.23-6.08 203.13-6.96L203.13-6.96ZM217.92 0L217.92-39.11 223.83-39.11 223.83 0 217.92 0ZM240.01-25.88L246.46-25.88 250.61-8.84 251.36-4.44 251.83-4.44 252.68-8.79 257.27-25.1 263.86-25.1 268.43-8.84 269.33-4.44 269.82-4.44 270.58-8.79 274.78-25.88 280.25-25.88 272.43 0 265.84 0 261.5-14.94 260.42-19.85 259.93-19.85 258.81-14.92 254.34 0 247.73 0 240.01-25.88ZM296.06 0.49L296.06 0.49Q293.01 0.49 290.68-0.54 288.35-1.56 286.76-3.31 285.18-5.05 284.36-7.35 283.54-9.64 283.54-12.21L283.54-12.21Q283.54-15.16 284.59-17.74 285.64-20.31 287.53-22.23 289.42-24.15 292.04-25.26 294.65-26.37 297.77-26.37L297.77-26.37Q300.82-26.37 303.17-25.34 305.51-24.32 307.1-22.56 308.69-20.8 309.5-18.49 310.32-16.19 310.32-13.62L310.32-13.62Q310.32-10.64 309.26-8.07 308.2-5.49 306.29-3.59 304.39-1.68 301.78-0.6 299.16 0.49 296.06 0.49ZM297.09-3.74L297.09-3.74Q298.65-3.74 299.95-4.38 301.24-5.03 302.17-6.19 303.1-7.35 303.61-8.96 304.12-10.57 304.12-12.52L304.12-12.52Q304.12-14.43 303.62-16.16 303.12-17.9 302.17-19.23 301.22-20.56 299.85-21.35 298.48-22.14 296.75-22.14L296.75-22.14Q295.16-22.14 293.87-21.48 292.57-20.83 291.66-19.65 290.74-18.48 290.23-16.86 289.72-15.23 289.72-13.31L289.72-13.31Q289.72-11.38 290.22-9.64 290.72-7.91 291.67-6.59 292.62-5.27 293.99-4.5 295.36-3.74 297.09-3.74ZM316.91 0L316.91-25.88 321.7-25.88 322.53-18.16Q322.87-18.8 323.23-19.47 323.6-20.14 323.97-20.76 324.33-21.39 324.65-21.9 324.97-22.41 325.19-22.75L325.19-22.75Q325.7-23.51 326.35-24.18 326.99-24.85 327.75-25.33 328.51-25.81 329.39-26.09 330.27-26.37 331.29-26.37L331.29-26.37Q332-26.37 332.71-26.2 333.41-26.03 333.9-25.66L333.9-25.66 333.27-20.21Q332.83-20.34 332.24-20.37 331.66-20.41 331.19-20.41L331.19-20.41Q329.63-20.41 328.41-19.96 327.19-19.51 326.2-18.71 325.21-17.92 324.39-16.85 323.58-15.77 322.82-14.53L322.82-14.53 322.82 0 316.91 0ZM339.44 0L339.44-39.11 345.35-39.11 345.35 0 339.44 0ZM363.59 0L356.43 0 346.79-13.65 356.85-25.81 362.83-25.81 352.67-14.38 363.59 0ZM367.2-1.22L368.25-5.66 368.69-5.93Q369.64-5.42 370.68-5 371.72-4.59 372.74-4.31 373.77-4.03 374.74-3.88 375.72-3.74 376.57-3.74L376.57-3.74Q378.8-3.74 380.05-4.66 381.31-5.59 381.31-7.03L381.31-7.03Q381.31-8.01 380.74-8.64 380.16-9.28 379.22-9.73 378.28-10.18 377.09-10.52 375.89-10.86 374.63-11.24 373.38-11.62 372.18-12.11 370.98-12.6 370.04-13.35 369.1-14.11 368.53-15.2 367.96-16.28 367.96-17.87L367.96-17.87Q367.96-19.65 368.72-21.22 369.49-22.78 370.92-23.91 372.35-25.05 374.39-25.71 376.43-26.37 378.97-26.37L378.97-26.37Q379.6-26.37 380.44-26.32 381.29-26.27 382.2-26.16 383.12-26.05 384.04-25.88 384.97-25.71 385.78-25.44L385.78-25.44 384.7-21.07 384.17-20.75Q383.43-21.12 382.59-21.39 381.75-21.66 380.91-21.81 380.07-21.97 379.27-22.06 378.48-22.14 377.87-22.14L377.87-22.14Q375.72-22.14 374.51-21.29 373.3-20.43 373.3-18.99L373.3-18.99Q373.3-17.99 373.89-17.35 374.47-16.7 375.41-16.25 376.35-15.8 377.57-15.47 378.8-15.14 380.05-14.76 381.31-14.38 382.53-13.89 383.75-13.4 384.69-12.65 385.63-11.89 386.22-10.79 386.8-9.69 386.8-8.08L386.8-8.08Q386.8-6.27 386.02-4.7 385.24-3.13 383.8-1.98 382.36-0.83 380.33-0.17 378.31 0.49 375.84 0.49L375.84 0.49Q373.82 0.49 371.54 0.05 369.27-0.39 367.2-1.22L367.2-1.22ZM393.32 0L393.32-39.11 399.23-39.11 399.23-21.7Q400.13-22.51 401.22-23.33 402.3-24.15 403.51-24.83 404.72-25.51 406.06-25.94 407.41-26.37 408.85-26.37L408.85-26.37Q410.6-26.37 412.04-25.71 413.49-25.05 414.51-23.85 415.54-22.66 416.1-20.97 416.66-19.29 416.66-17.24L416.66-17.24 416.66 0 410.73 0 410.73-16.58Q410.73-17.9 410.36-18.88 409.99-19.87 409.36-20.53 408.72-21.19 407.83-21.52 406.94-21.85 405.92-21.85L405.92-21.85Q404.11-21.85 402.5-20.92 400.89-20 399.23-18.48L399.23-18.48 399.23 0 393.32 0ZM435.75 0.49L435.75 0.49Q432.7 0.49 430.37-0.54 428.03-1.56 426.45-3.31 424.86-5.05 424.04-7.35 423.22-9.64 423.22-12.21L423.22-12.21Q423.22-15.16 424.27-17.74 425.32-20.31 427.22-22.23 429.11-24.15 431.72-25.26 434.33-26.37 437.46-26.37L437.46-26.37Q440.51-26.37 442.85-25.34 445.2-24.32 446.78-22.56 448.37-20.8 449.19-18.49 450.01-16.19 450.01-13.62L450.01-13.62Q450.01-10.64 448.94-8.07 447.88-5.49 445.98-3.59 444.07-1.68 441.46-0.6 438.85 0.49 435.75 0.49ZM436.77-3.74L436.77-3.74Q438.34-3.74 439.63-4.38 440.92-5.03 441.85-6.19 442.78-7.35 443.29-8.96 443.81-10.57 443.81-12.52L443.81-12.52Q443.81-14.43 443.3-16.16 442.8-17.9 441.85-19.23 440.9-20.56 439.53-21.35 438.17-22.14 436.43-22.14L436.43-22.14Q434.85-22.14 433.55-21.48 432.26-20.83 431.34-19.65 430.43-18.48 429.91-16.86 429.4-15.23 429.4-13.31L429.4-13.31Q429.4-11.38 429.9-9.64 430.4-7.91 431.35-6.59 432.31-5.27 433.67-4.5 435.04-3.74 436.77-3.74ZM462.5-18.46L462.5-4.76Q463.11-4.47 463.81-4.27 464.51-4.08 465.16-3.96 465.82-3.83 466.43-3.78 467.04-3.74 467.48-3.74L467.48-3.74Q469.36-3.74 470.88-4.48 472.39-5.22 473.47-6.51 474.54-7.79 475.11-9.5 475.69-11.21 475.69-13.16L475.69-13.16Q475.69-14.99 475.21-16.58 474.74-18.16 473.88-19.34 473.03-20.51 471.81-21.18 470.58-21.85 469.12-21.85L469.12-21.85Q467.36-21.85 465.67-20.91 463.97-19.97 462.5-18.46L462.5-18.46ZM461.33-25.88L462.21-21.53Q463.09-22.36 464.12-23.22 465.14-24.07 466.32-24.77 467.51-25.46 468.86-25.92 470.22-26.37 471.76-26.37L471.76-26.37Q474.12-26.37 475.99-25.33 477.86-24.29 479.15-22.57 480.45-20.85 481.14-18.62 481.84-16.38 481.84-14.01L481.84-14.01Q481.84-10.89 480.69-8.23 479.54-5.57 477.57-3.63 475.59-1.68 472.93-0.6 470.27 0.49 467.26 0.49L467.26 0.49Q466.68 0.49 466.03 0.45 465.38 0.42 464.76 0.34 464.14 0.27 463.55 0.16 462.97 0.05 462.5-0.1L462.5-0.1 462.5 13.09 456.6 13.09 456.6-25.88 461.33-25.88Z" opacity="1" transform="matrix(1,0,0,1,0,0)" fill="#eeddc1" class="wordmark-text-0" data-fill-palette-color="primary" id="text-0"></path></svg></g></svg></g><g transform="matrix(1,0,0,1,75.54431999999998,53.5148864741839)"><svg viewBox="0 0 244.43136 19.2946533874433" height="19.2946533874433" width="244.43136"><g transform="matrix(1,0,0,1,0,0)"><svg width="244.43136" viewBox="4 -37.5 628.28 49.6" height="19.2946533874433" data-palette-color="#eeddc1"><path d="M9 0L4 0 4-35 15.35-35Q19-35 21.73-33.88 24.45-32.75 25.95-30.4 27.45-28.05 27.45-24.35L27.45-24.35Q27.45-20.75 25.89-18.32 24.33-15.9 21.35-14.5L21.35-14.5 29.2 0 23.4 0 16.3-13.65Q16.23-13.65 16.18-13.65 16.13-13.65 16.05-13.65L16.05-13.65 9-13.65 9 0ZM9-30.75L9-17.9 15.3-17.9Q18.88-17.9 20.69-19.63 22.5-21.35 22.5-24.35L22.5-24.35Q22.5-27.4 20.69-29.08 18.88-30.75 15.3-30.75L15.3-30.75 9-30.75ZM44 0.5L44 0.5Q39.67 0.5 36.72-1.28 33.77-3.05 32.26-5.99 30.75-8.93 30.75-12.45L30.75-12.45Q30.75-15.88 32.16-18.73 33.57-21.58 36.26-23.29 38.95-25 42.75-25L42.75-25Q45.8-25 48.19-23.79 50.57-22.58 51.94-20.26 53.3-17.95 53.3-14.65L53.3-14.65Q53.3-14.13 53.26-13.51 53.22-12.9 53.1-12.25L53.1-12.25 35.35-12.25Q35.67-8.85 36.97-6.95 38.27-5.05 40.25-4.28 42.22-3.5 44.55-3.5L44.55-3.5Q46.25-3.5 48.1-3.85 49.95-4.2 51.6-4.95L51.6-4.95 52.2-1.4Q50.77-0.78 48.72-0.14 46.67 0.5 44 0.5ZM35.75-15.35L35.75-15.35 48.65-15.35Q48.65-17.07 48-18.35 47.35-19.63 46.02-20.31 44.7-21 42.65-21L42.65-21Q39.65-21 38.04-19.51 36.42-18.03 35.75-15.35ZM62.34 12.1L57.84 12.1 57.84-24.5 61.34-24.5 62.15-18.9 60.9-19.8Q62.45-22.2 64.72-23.6 67-25 70.3-25L70.3-25Q73.65-25 76.05-23.3 78.45-21.6 79.72-18.71 81-15.83 81-12.25L81-12.25Q81-8.68 79.8-5.79 78.59-2.9 76.22-1.2 73.84 0.5 70.3 0.5L70.3 0.5Q67.37 0.5 65.01-0.71 62.65-1.93 61.59-4.35L61.59-4.35 62.34-5.25 62.34 12.1ZM69.45-3.5L69.45-3.5Q72.72-3.5 74.56-5.81 76.4-8.13 76.4-12.25L76.4-12.25Q76.4-16.38 74.56-18.69 72.72-21 69.45-21L69.45-21Q67.42-21 65.76-20.04 64.09-19.07 63.09-17.14 62.09-15.2 62.09-12.25L62.09-12.25Q62.09-9.18 63.09-7.25 64.09-5.33 65.76-4.41 67.42-3.5 69.45-3.5ZM91.39 0.5L91.39 0.5Q89.12 0.5 87.42-0.43 85.72-1.35 84.78-2.95 83.84-4.55 83.84-6.6L83.84-6.6Q83.84-8.68 84.76-10.16 85.67-11.65 87.21-12.64 88.74-13.63 90.64-14.21 92.54-14.8 94.58-15.06 96.62-15.33 98.49-15.35L98.49-15.35Q98.49-18.85 97.12-19.93 95.74-21 93.14-21L93.14-21Q91.77-21 90.21-20.58 88.64-20.15 86.69-18.8L86.69-18.8 86.04-22.45Q87.52-23.58 89.72-24.29 91.92-25 94.34-25L94.34-25Q97.44-25 99.34-23.91 101.24-22.83 102.12-20.25 102.99-17.68 102.99-13.25L102.99-13.25 102.99-8.25Q102.99-6.5 103.16-5.36 103.32-4.23 103.91-3.66 104.49-3.1 105.79-3.1L105.79-3.1 106.24-3.1 105.54 0.5 105.19 0.5Q103.02 0.5 101.83 0.08 100.64-0.35 100.02-1.15 99.39-1.95 98.89-3.1L98.89-3.1Q97.52-1.5 95.64-0.5 93.77 0.5 91.39 0.5ZM92.24-3.1L92.24-3.1Q94.04-3.1 95.73-4 97.42-4.9 98.49-6.4L98.49-6.4 98.49-12.25Q94.92-12.13 92.71-11.55 90.49-10.98 89.47-9.83 88.44-8.68 88.44-6.85L88.44-6.85Q88.44-4.88 89.51-3.99 90.57-3.1 92.24-3.1ZM114.19 0L109.69 0 109.69-24.5 114.19-24.5 114.19 0ZM114.19-30L109.69-30 109.69-35 114.19-35 114.19-30ZM125.09 0L120.29 0 120.29-24.5 123.99-24.5 124.54-20.45Q126.41-22.78 128.13-23.89 129.84-25 131.79-25L131.79-25Q132.41-25 132.94-24.85L132.94-24.85 132.49-19.9Q132.16-19.98 131.8-20.01 131.44-20.05 130.99-20.05L130.99-20.05Q129.04-20.05 127.4-19.19 125.76-18.32 125.09-17.3L125.09-17.3 125.09 0ZM158.03 0.5L158.03 0.5Q154.18 0.5 151.47-1.21 148.76-2.93 147.32-5.81 145.88-8.7 145.88-12.25L145.88-12.25Q145.88-15.8 147.32-18.69 148.76-21.58 151.47-23.29 154.18-25 158.03-25L158.03-25Q161.86-25 164.58-23.29 167.31-21.58 168.75-18.69 170.18-15.8 170.18-12.25L170.18-12.25Q170.18-8.7 168.75-5.81 167.31-2.93 164.58-1.21 161.86 0.5 158.03 0.5ZM158.03-3.5L158.03-3.5Q161.68-3.5 163.63-5.81 165.58-8.13 165.58-12.25L165.58-12.25Q165.58-16.38 163.63-18.69 161.68-21 158.03-21L158.03-21Q154.41-21 152.45-18.69 150.48-16.38 150.48-12.25L150.48-12.25Q150.48-8.13 152.45-5.81 154.41-3.5 158.03-3.5ZM180.78 0L176.28 0 176.28-21 172.03-21 172.63-24.5 176.28-24.5 176.28-30.3Q176.28-33.58 178.03-35.54 179.78-37.5 183.18-37.5L183.18-37.5Q184.43-37.5 185.37-37.33 186.31-37.15 187.08-36.85L187.08-36.85 186.38-33.05Q185.78-33.27 185.21-33.39 184.63-33.5 183.88-33.5L183.88-33.5Q182.43-33.5 181.61-32.69 180.78-31.88 180.78-30L180.78-30 180.78-24.5 187.38-24.5 187.38-21 180.78-21 180.78 0ZM225.13 0L203.33 0 203.33-35 224.68-35 224.68-30.7 208.08-30.7 208.08-20.45 221.28-20.45 221.28-16.15 208.08-16.15 208.08-4.3 225.13-4.3 225.13 0ZM237.82 0.5L236.37 0.5Q234 0.5 232.61-0.36 231.22-1.23 230.62-2.58 230.02-3.93 230.02-5.4L230.02-5.4 230.02-37.5 234.52-37.5 234.52-8Q234.52-5.9 234.8-4.85 235.07-3.8 235.91-3.45 236.75-3.1 238.47-3.1L238.47-3.1 237.82 0.5ZM253.37 0.5L253.37 0.5Q249.05 0.5 246.1-1.28 243.15-3.05 241.63-5.99 240.12-8.93 240.12-12.45L240.12-12.45Q240.12-15.88 241.53-18.73 242.95-21.58 245.63-23.29 248.32-25 252.12-25L252.12-25Q255.17-25 257.56-23.79 259.95-22.58 261.31-20.26 262.67-17.95 262.67-14.65L262.67-14.65Q262.67-14.13 262.63-13.51 262.6-12.9 262.47-12.25L262.47-12.25 244.72-12.25Q245.05-8.85 246.35-6.95 247.65-5.05 249.62-4.28 251.6-3.5 253.92-3.5L253.92-3.5Q255.62-3.5 257.47-3.85 259.32-4.2 260.97-4.95L260.97-4.95 261.57-1.4Q260.15-0.78 258.1-0.14 256.05 0.5 253.37 0.5ZM245.12-15.35L245.12-15.35 258.02-15.35Q258.02-17.07 257.37-18.35 256.72-19.63 255.4-20.31 254.07-21 252.02-21L252.02-21Q249.02-21 247.41-19.51 245.8-18.03 245.12-15.35ZM278.47 0.5L278.47 0.5Q274.32 0.5 271.51-1.19 268.69-2.88 267.26-5.74 265.82-8.6 265.82-12.1L265.82-12.1Q265.82-15.75 267.21-18.68 268.59-21.6 271.47-23.3 274.34-25 278.82-25L278.82-25Q280.74-25 282.46-24.61 284.17-24.23 285.52-23.55L285.52-23.55 284.82-19.6Q283.44-20.25 281.91-20.63 280.37-21 278.72-21L278.72-21Q274.67-21 272.54-18.7 270.42-16.4 270.42-12.3L270.42-12.3Q270.42-8.3 272.44-5.88 274.47-3.45 278.62-3.45L278.62-3.45Q280.32-3.45 281.88-3.85 283.44-4.25 284.87-4.95L284.87-4.95 285.47-1.35Q284.47-0.65 282.54-0.08 280.62 0.5 278.47 0.5ZM302.42 0.5L298.37 0.5Q296.04 0.5 294.64-0.35 293.24-1.2 292.6-2.54 291.97-3.88 291.97-5.35L291.97-5.35 291.97-21 287.77-21 288.17-24.5 291.97-24.5 291.97-30.55 296.47-31 296.47-24.5 302.92-24.5 302.92-21 296.47-21 296.47-8.1Q296.47-5.75 296.74-4.7 297.02-3.65 298.1-3.38 299.19-3.1 301.62-3.1L301.62-3.1 302.77-3.1 302.42 0.5ZM311.56 0L306.76 0 306.76-24.5 310.46-24.5 311.01-20.45Q312.89-22.78 314.6-23.89 316.31-25 318.26-25L318.26-25Q318.89-25 319.41-24.85L319.41-24.85 318.96-19.9Q318.64-19.98 318.28-20.01 317.91-20.05 317.46-20.05L317.46-20.05Q315.51-20.05 313.88-19.19 312.24-18.32 311.56-17.3L311.56-17.3 311.56 0ZM327.06 0L322.56 0 322.56-24.5 327.06-24.5 327.06 0ZM327.06-30L322.56-30 322.56-35 327.06-35 327.06-30ZM344.41 0.5L344.41 0.5Q340.26 0.5 337.45-1.19 334.63-2.88 333.2-5.74 331.76-8.6 331.76-12.1L331.76-12.1Q331.76-15.75 333.15-18.68 334.53-21.6 337.41-23.3 340.28-25 344.76-25L344.76-25Q346.68-25 348.4-24.61 350.11-24.23 351.46-23.55L351.46-23.55 350.76-19.6Q349.38-20.25 347.85-20.63 346.31-21 344.66-21L344.66-21Q340.61-21 338.48-18.7 336.36-16.4 336.36-12.3L336.36-12.3Q336.36-8.3 338.38-5.88 340.41-3.45 344.56-3.45L344.56-3.45Q346.26-3.45 347.82-3.85 349.38-4.25 350.81-4.95L350.81-4.95 351.41-1.35Q350.41-0.65 348.48-0.08 346.56 0.5 344.41 0.5ZM361.56 0.5L361.56 0.5Q359.28 0.5 357.58-0.43 355.88-1.35 354.94-2.95 354.01-4.55 354.01-6.6L354.01-6.6Q354.01-8.68 354.92-10.16 355.83-11.65 357.37-12.64 358.91-13.63 360.81-14.21 362.71-14.8 364.74-15.06 366.78-15.33 368.66-15.35L368.66-15.35Q368.66-18.85 367.28-19.93 365.91-21 363.31-21L363.31-21Q361.93-21 360.37-20.58 358.81-20.15 356.86-18.8L356.86-18.8 356.21-22.45Q357.68-23.58 359.88-24.29 362.08-25 364.51-25L364.51-25Q367.61-25 369.51-23.91 371.41-22.83 372.28-20.25 373.16-17.68 373.16-13.25L373.16-13.25 373.16-8.25Q373.16-6.5 373.32-5.36 373.48-4.23 374.07-3.66 374.66-3.1 375.96-3.1L375.96-3.1 376.41-3.1 375.71 0.5 375.36 0.5Q373.18 0.5 371.99 0.08 370.81-0.35 370.18-1.15 369.56-1.95 369.06-3.1L369.06-3.1Q367.68-1.5 365.81-0.5 363.93 0.5 361.56 0.5ZM362.41-3.1L362.41-3.1Q364.21-3.1 365.89-4 367.58-4.9 368.66-6.4L368.66-6.4 368.66-12.25Q365.08-12.13 362.87-11.55 360.66-10.98 359.63-9.83 358.61-8.68 358.61-6.85L358.61-6.85Q358.61-4.88 359.67-3.99 360.73-3.1 362.41-3.1ZM387.6 0.5L386.15 0.5Q383.78 0.5 382.39-0.36 381-1.23 380.4-2.58 379.8-3.93 379.8-5.4L379.8-5.4 379.8-37.5 384.3-37.5 384.3-8Q384.3-5.9 384.58-4.85 384.85-3.8 385.69-3.45 386.53-3.1 388.25-3.1L388.25-3.1 387.6 0.5ZM425.65 0L403.85 0 403.85-35 425.2-35 425.2-30.7 408.6-30.7 408.6-20.45 421.8-20.45 421.8-16.15 408.6-16.15 408.6-4.3 425.65-4.3 425.65 0ZM451.55 12.1L447.05 12.1 447.05-5.25 447.8-4.35Q446.8-1.93 444.53-0.71 442.27 0.5 439.35 0.5L439.35 0.5Q435.72 0.5 433.28-1.2 430.85-2.9 429.62-5.79 428.4-8.68 428.4-12.25L428.4-12.25Q428.4-15.6 429.7-18.51 431-21.43 433.43-23.21 435.87-25 439.3-25L439.3-25Q442.75-25 444.86-23.64 446.97-22.28 448.5-19.8L448.5-19.8 447.25-18.9 448.05-24.5 451.55-24.5 451.55 12.1ZM439.95-3.5L439.95-3.5Q441.97-3.5 443.63-4.41 445.3-5.33 446.3-7.25 447.3-9.18 447.3-12.25L447.3-12.25Q447.3-16.68 445.15-18.84 443-21 439.95-21L439.95-21Q436.7-21 434.85-18.69 433-16.38 433-12.25L433-12.25Q433-8.13 434.85-5.81 436.7-3.5 439.95-3.5ZM466.44 0.5L466.44 0.5Q463.57 0.5 461.54-0.66 459.52-1.83 458.46-4.2 457.39-6.58 457.39-10.25L457.39-10.25 457.39-24.5 461.89-24.5 461.89-11.5Q461.89-7.6 463.23-5.55 464.57-3.5 467.59-3.5L467.59-3.5Q469.67-3.5 471.44-4.5 473.22-5.5 473.89-7.7L473.89-7.7 473.24-5.25 473.24-24.5 477.74-24.5 477.74 0 473.74 0 472.84-4.8 474.04-4Q472.82-1.73 471.06-0.61 469.29 0.5 466.44 0.5ZM488.34 0L483.84 0 483.84-24.5 488.34-24.5 488.34 0ZM488.34-30L483.84-30 483.84-35 488.34-35 488.34-30ZM498.94 12.1L494.44 12.1 494.44-24.5 497.94-24.5 498.74-18.9 497.49-19.8Q499.04-22.2 501.31-23.6 503.59-25 506.89-25L506.89-25Q510.24-25 512.64-23.3 515.04-21.6 516.31-18.71 517.59-15.83 517.59-12.25L517.59-12.25Q517.59-8.68 516.39-5.79 515.19-2.9 512.81-1.2 510.44 0.5 506.89 0.5L506.89 0.5Q503.96 0.5 501.6-0.71 499.24-1.93 498.19-4.35L498.19-4.35 498.94-5.25 498.94 12.1ZM506.04-3.5L506.04-3.5Q509.31-3.5 511.15-5.81 512.99-8.13 512.99-12.25L512.99-12.25Q512.99-16.38 511.15-18.69 509.31-21 506.04-21L506.04-21Q504.01-21 502.35-20.04 500.69-19.07 499.69-17.14 498.69-15.2 498.69-12.25L498.69-12.25Q498.69-9.18 499.69-7.25 500.69-5.33 502.35-4.41 504.01-3.5 506.04-3.5ZM526.79 0L522.29 0 522.29-24.5 525.79-24.5 526.69-19.8 524.99-20.6Q527.29-23.08 529.46-24.04 531.64-25 534.04-25L534.04-25Q535.84-25 537.5-24.41 539.16-23.83 540.5-22.36 541.84-20.9 542.64-18.3L542.64-18.3 541.39-18.85Q542.49-21.7 544.76-23.35 547.04-25 550.89-25L550.89-25Q553.96-25 556.06-23.86 558.16-22.73 559.22-20.39 560.29-18.05 560.29-14.45L560.29-14.45 560.29 0 555.79 0 555.79-14.4Q555.79-17.85 554.44-19.43 553.09-21 550.04-21L550.04-21Q547.89-21 546.59-20.34 545.29-19.68 544.62-18.63 543.96-17.57 543.75-16.4 543.54-15.23 543.54-14.2L543.54-14.2 543.54 0 539.04 0 539.04-13.5Q539.04-16.5 538.31-18.13 537.59-19.75 536.29-20.38 534.99-21 533.29-21L533.29-21Q530.81-21 528.86-19.91 526.91-18.82 526.24-16.45L526.24-16.45 526.79-18.9 526.79 0ZM577.88 0.5L577.88 0.5Q573.56 0.5 570.61-1.28 567.66-3.05 566.15-5.99 564.63-8.93 564.63-12.45L564.63-12.45Q564.63-15.88 566.05-18.73 567.46-21.58 570.15-23.29 572.83-25 576.63-25L576.63-25Q579.68-25 582.07-23.79 584.46-22.58 585.82-20.26 587.18-17.95 587.18-14.65L587.18-14.65Q587.18-14.13 587.15-13.51 587.11-12.9 586.98-12.25L586.98-12.25 569.23-12.25Q569.56-8.85 570.86-6.95 572.16-5.05 574.13-4.28 576.11-3.5 578.43-3.5L578.43-3.5Q580.13-3.5 581.98-3.85 583.83-4.2 585.48-4.95L585.48-4.95 586.08-1.4Q584.66-0.78 582.61-0.14 580.56 0.5 577.88 0.5ZM569.63-15.35L569.63-15.35 582.53-15.35Q582.53-17.07 581.88-18.35 581.23-19.63 579.91-20.31 578.58-21 576.53-21L576.53-21Q573.53-21 571.92-19.51 570.31-18.03 569.63-15.35ZM596.23 0L591.73 0 591.73-24.5 595.23-24.5 596.13-19.8 594.38-20.55Q596.86-23.3 599.22-24.15 601.58-25 603.83-25L603.83-25Q609.21-25 611.52-21.9 613.83-18.8 613.83-13.5L613.83-13.5 613.83 0 609.33 0 609.33-13.5Q609.33-17.4 607.88-19.2 606.43-21 602.93-21L602.93-21Q600.46-21 598.39-19.91 596.33-18.82 595.68-16.45L595.68-16.45 596.23-19.2 596.23 0ZM631.78 0.5L627.73 0.5Q625.4 0.5 624-0.35 622.6-1.2 621.97-2.54 621.33-3.88 621.33-5.35L621.33-5.35 621.33-21 617.13-21 617.53-24.5 621.33-24.5 621.33-30.55 625.83-31 625.83-24.5 632.28-24.5 632.28-21 625.83-21 625.83-8.1Q625.83-5.75 626.1-4.7 626.38-3.65 627.47-3.38 628.55-3.1 630.98-3.1L630.98-3.1 632.13-3.1 631.78 0.5Z" opacity="1" transform="matrix(1,0,0,1,0,0)" fill="#eeddc1" class="slogan-text-1" data-fill-palette-color="secondary" id="text-1"></path></svg></g></svg></g></svg></g></svg></g><g transform="matrix(1,0,0,1,75.54432,0)"><svg viewBox="0 0 244.43135999999998 244.43135999999998" height="244.43135999999998" width="244.43135999999998"><g><svg viewBox="0 0 244.43135999999998 244.43135999999998" height="244.43135999999998" width="244.43135999999998"><g transform="matrix(1,0,0,1,81.60782179336533,64.60265593644993)"><svg viewBox="0 0 81.2157164132693 115.22604812710013" height="115.22604812710013" width="81.2157164132693"><g><svg xmlns="http://www.w3.org/2000/svg" xmlns:xlink="http://www.w3.org/1999/xlink" version="1.1" x="0" y="0" viewBox="16.90899999999997 4.7677730867183605 63.04300000000003 89.44322691328162" enable-background="new 0 0 100 100" xml:space="preserve" height="115.22604812710013" width="81.2157164132693" class="icon-cg-0" data-fill-palette-color="accent" id="cg-0"><g display="none" fill="#eeddc1" data-fill-palette-color="accent"><path display="inline" opacity="0.3" fill-rule="evenodd" clip-rule="evenodd" d="M17.415 70.87l23.965-7.163 1.219-18.383-1.948-6.816 7.184-22.276 1.648-0.236 0.451 5.045 2.807 3.445 0.258 1.146 4.718 3.954 2.104 0.575 1.086-0.509 1.596-0.066 3.763 0.706 2.104-0.449 1.149 0.063 2.36 3.127 0.641 2.167 1.465 1.341 0.767 1.53 3.127 2.552 1.532 0.276 0.541 0.604-0.095 1.621-1.019 1.847 0.158 1.081-0.289 1.27-3.128 4.975-2.041 1.853-0.934 1.952-0.986 0.861-0.956 3.211-0.986-0.094-0.887-0.478 0.157-0.923 0.415-0.829-0.767-0.283-0.824 0.667-1.018 1.847-0.383 0.094 0.603 1.081-0.986 0.257-1.433 2.734v1.464l-0.54 1.338 0.352 0.095 0.797 1.521-0.477 0.1 1.049 3.022 0.698 0.635-0.314 0.824-4.203 0.352-0.855 0.604-1.182-0.572-1.903 0.508-3.087 3.752v2.608l-0.766 0.703-1.589 1.622-1.019-0.415-2.1 0.352-2.923-0.062-0.767 0.792-1.176 1.175 0.222 0.829-0.157 1.05 0.792 0.446-0.095 0.987-0.41 0.094 0.095 0.352-2.035 3.023-1.019 0.094-1.338-0.829-1.433 0.288-1.685-0.13-2.991 1.621-1.847-0.063-1.087 1.784h-1.658l-0.445-0.32-1.123 0.289-4.85-5.762 1.098-3.652-7.673-9.74L17.415 70.87 17.415 70.87zM47.84 12.372l0.053-1.028 0.703-1.338 0.215-2.377-0.383-0.223 0.32-0.952-0.415-0.512 0.352-0.286 0.352 0.066-0.414-0.638-0.572 0.16-0.703-0.065-0.383 2.291-0.441 0.543-0.446-0.543-0.287 0.797-0.012 0.746 1.065 0.333 0.241 2.989L47.84 12.372z" fill="#eeddc1" data-fill-palette-color="accent"></path></g><g display="none" fill="#eeddc1" data-fill-palette-color="accent"><path display="inline" d="M44.445 50.053c0-1.002 0.267-1.79 0.807-2.356 0.541-0.567 1.239-0.85 2.09-0.85 0.556 0 1.064 0.131 1.511 0.399 0.446 0.267 0.788 0.64 1.022 1.117 0.237 0.472 0.352 1.018 0.352 1.622 0 0.614-0.119 1.16-0.366 1.643-0.252 0.488-0.598 0.855-1.055 1.102-0.452 0.251-0.945 0.373-1.469 0.373-0.567 0-1.076-0.136-1.527-0.409-0.446-0.279-0.788-0.651-1.019-1.128C44.561 51.087 44.445 50.583 44.445 50.053L44.445 50.053zM45.269 50.068c0 0.729 0.199 1.301 0.588 1.721 0.394 0.42 0.887 0.63 1.475 0.63 0.604 0 1.102-0.21 1.489-0.635 0.39-0.425 0.583-1.028 0.583-1.805 0-0.494-0.084-0.924-0.246-1.291-0.169-0.362-0.409-0.651-0.729-0.851-0.325-0.204-0.683-0.304-1.081-0.304-0.567 0-1.055 0.194-1.464 0.583S45.269 49.155 45.269 50.068L45.269 50.068zM51.235 53.001v-6.05h1.206l1.433 4.282c0.132 0.399 0.227 0.698 0.289 0.897 0.068-0.221 0.173-0.546 0.32-0.971l1.448-4.208h1.076v6.05h-0.771v-5.063l-1.758 5.063h-0.72l-1.752-5.147v5.147H51.235L51.235 53.001zM57.637 53.001l2.319-6.05h0.866l2.472 6.05h-0.907l-0.709-1.836h-2.529l-0.661 1.836H57.637L57.637 53.001zM59.38 50.514h2.051l-0.63-1.674c-0.194-0.509-0.335-0.924-0.43-1.254-0.079 0.388-0.185 0.776-0.325 1.154L59.38 50.514 59.38 50.514zM63.929 53.001v-6.05h0.818l3.175 4.749v-4.749h0.771v6.05h-0.824l-3.174-4.754v4.754H63.929z" fill="#eeddc1" data-fill-palette-color="accent"></path></g><g fill="#eeddc1" data-fill-palette-color="accent"><path d="M24.25 85.195l-7.34-10.169 0.505-4.156 23.965-7.163 1.219-18.383-1.948-6.816L47.5 16c0.541 0.277 1.162-0.051 1.729-0.105 0.402 1.369 0.024 3.238 0.521 4.479 0.428 1.067 2.135 1.728 2.784 3.003 0.294 0.578 0.269 1.622 0.618 2.066C53.558 25.958 54.378 26.09 55 26.5c1.468 0.967 2.949 3.489 4.743 3.603 0.559 0.036 1.425-0.354 2.107-0.353 0.748 0.002 1.619-0.125 2.355 0.019 0.762 0.148 1.35 0.654 2.171 0.605 0.575-0.034 1.066-0.494 1.627-0.505 0.273-0.005 1.636 0.275 1.85 0.381 0.814 0.404 0.714 1.182 0.987 2.128 0.284 0.983 0.99 2.179 1.781 2.875 0.463 0.407 0.927 0.551 1.256 1.025 0.322 0.463 0.319 1.208 0.744 1.721 1.101 1.327 2.841 1.87 4.255 2.626 1.05 0.561 1.193 1.608 0.748 2.755-0.171 0.438-0.552 0.593-0.75 1.248-0.06 0.196-0.265 0.698-0.262 0.875 0.004 0.286 0.456 0.527 0.398 0.747-0.134 0.516-0.581 0.926-0.887 1.372-0.66 0.963-1.057 2.121-1.632 3.146-0.315 0.563-0.752 1.38-1.162 1.862-0.469 0.551-0.938 0.5-1.546 1.016-0.608 0.516-0.671 1.236-1.148 1.936-0.329 0.48-0.809 0.783-1.049 1.165-0.527 0.839-1.134 2.626-1.385 3.59-0.335-0.286-1.381-0.356-1.562-0.694-0.311-0.579 0.712-1.332-0.02-1.868-1.054-0.772-2.152 1.554-2.228 2.328 0.543 0.185 0.592 0.75 0.597 1.277-1.06 0.619-1.083 0.321-1.585 1.397-0.327 0.702-0.849 1.618-1.061 2.344-0.131 0.445-0.431 1.737-0.319 2.131 0.22 0.776 1.143 0.804 1.081 1.853-0.12 0.029-0.227 0.007-0.348 0.034 0.343 0.833 1.87 2.416 1.878 3.241 0.015 1.387-1.881 1.282-2.734 1.528-1.3 0.375-2.16 0.828-3.415 0.493-1.157-0.309-1.879-0.376-2.885 0.642-1.129 1.143-2.413 3.004-2.859 4.456-0.232 0.758-0.718 3.119-1.875 3.393-0.188 0.044-0.761-0.57-1.243-0.524-0.721 0.068-1.257 0.795-1.859 1.153-1.56 0.928-1.907-0.467-3.24-0.178-1.525 0.331-1.958 2.152-1.623 3.406 0.229 0.854 0.427 0.705 0.222 1.622-0.225 1.001-1.152 2-1.518 2.98-0.334 0.071-1.049 0.578-1.356 0.531-0.635-0.096-0.808-0.867-1.375-1.139-0.666-0.32-1.906-0.111-2.625-0.022-1.242 0.153-2.256 0.97-3.466 1.305-0.64 0.177-1.748-0.432-1.928 0.58-1.23 0.378-1.577 1.755-3.335 1.499-0.327-1.051-0.605-0.002-1.021-0.128-0.475-0.143-0.705-0.287-1.125-0.628-1.357-1.101-1.972-2.277-3.097-3.6-0.814-0.958-1.033-1.057-0.557-2.229 0.405-0.996 0.528-2.327 0.528-2.146" fill="#eeddc1" data-fill-palette-color="accent"></path><path d="M46.875 12.125c0.144-0.426 0.148-1.795 0.106-2.603-1.457-0.24-1.108-1.308-0.734-2.35 0.154 0.417 0.453 0.646 0.731 0.811 0.578-1.779-0.368-3.264 2.253-3.214 0.216 0.739-0.369 0.984-0.972 1.131 0.69 0.525 0.509 2.738 0.268 3.628C48.296 10.385 47.689 12.194 47 12.5" fill="#eeddc1" data-fill-palette-color="accent"></path></g></svg></g></svg></g><g id="text-0"><path d="M25.219 85.412l-3.508 10.896-18.32-5.897 3.584-11.135 2.077 1.12-2.457 7.633 5.519 1.777 2.176-6.757 2.012 1.089-2.046 6.357 6.252 2.013 2.647-8.223z" fill="#eeddc1" data-fill-palette-color="accent"></path><path d="M27.501 80.663l-19.091-8.857 1.338-2.884 19.091 8.857z" fill="#eeddc1" data-fill-palette-color="accent"></path><path d="M35.14 62.016l1.346 0.846c0.024 0.464-0.002 0.936-0.076 1.417-0.074 0.481-0.183 0.955-0.327 1.423-0.145 0.468-0.317 0.918-0.519 1.351-0.203 0.423-0.416 0.813-0.639 1.169v0c-0.518 0.824-1.122 1.511-1.814 2.06-0.701 0.552-1.46 0.933-2.277 1.143-0.815 0.22-1.673 0.251-2.575 0.095-0.905-0.151-1.82-0.518-2.745-1.1v0c-0.988-0.621-1.778-1.349-2.37-2.185-0.592-0.837-0.992-1.71-1.199-2.62-0.204-0.915-0.228-1.836-0.072-2.761 0.16-0.931 0.491-1.797 0.995-2.598v0c0.418-0.666 0.919-1.218 1.5-1.655 0.582-0.437 1.218-0.73 1.91-0.878 0.691-0.148 1.433-0.139 2.225 0.029 0.798 0.171 1.623 0.524 2.476 1.059v0c0.203 0.128 0.418 0.274 0.644 0.44 0.221 0.162 0.43 0.337 0.627 0.524v0l-4.947 7.873c0.598 0.376 1.194 0.605 1.788 0.687 0.592 0.073 1.164 0.015 1.716-0.174 0.546-0.192 1.068-0.51 1.566-0.952 0.504-0.439 0.962-0.986 1.373-1.641v0c0.117-0.186 0.245-0.409 0.384-0.667 0.139-0.259 0.275-0.544 0.407-0.855 0.134-0.301 0.256-0.626 0.365-0.975 0.109-0.349 0.188-0.7 0.238-1.055zM25.991 66.824l3.452-5.495c-0.542-0.34-1.063-0.57-1.563-0.687-0.491-0.12-0.947-0.146-1.367-0.079-0.425 0.063-0.805 0.21-1.14 0.441-0.34 0.227-0.623 0.522-0.85 0.883v0c-0.255 0.406-0.411 0.836-0.467 1.288-0.056 0.453-0.019 0.901 0.111 1.346 0.13 0.444 0.35 0.865 0.659 1.263 0.308 0.399 0.697 0.745 1.165 1.04z" fill="#eeddc1" data-fill-palette-color="accent"></path><path d="M45.046 50.218l1.207 1.034c-0.033 0.797-0.195 1.57-0.487 2.321-0.297 0.746-0.729 1.451-1.297 2.114v0c-0.642 0.749-1.342 1.316-2.102 1.701-0.76 0.385-1.542 0.597-2.348 0.635-0.8 0.043-1.605-0.089-2.413-0.395-0.808-0.297-1.581-0.762-2.32-1.394v0c-0.871-0.746-1.54-1.583-2.009-2.511-0.464-0.933-0.732-1.886-0.803-2.86-0.071-0.982 0.054-1.959 0.377-2.929 0.322-0.97 0.834-1.865 1.536-2.685v0c0.156-0.182 0.331-0.371 0.524-0.565 0.194-0.185 0.399-0.374 0.616-0.566 0.222-0.187 0.45-0.361 0.683-0.52 0.238-0.165 0.473-0.301 0.705-0.409v0l1.489 2.012-0.083 0.297c-0.19 0.048-0.395 0.118-0.615 0.21-0.225 0.088-0.445 0.202-0.662 0.342-0.221 0.135-0.434 0.286-0.638 0.454-0.21 0.163-0.399 0.343-0.568 0.54v0c-0.364 0.425-0.621 0.894-0.771 1.407-0.145 0.508-0.177 1.037-0.097 1.589 0.08 0.552 0.286 1.105 0.618 1.661 0.322 0.557 0.774 1.084 1.356 1.582v0c0.613 0.525 1.225 0.896 1.837 1.113 0.608 0.222 1.197 0.314 1.766 0.275 0.573-0.044 1.116-0.207 1.629-0.487 0.517-0.286 0.985-0.674 1.406-1.165v0c0.264-0.309 0.526-0.691 0.783-1.146 0.267-0.456 0.494-1.007 0.681-1.655z" fill="#eeddc1" data-fill-palette-color="accent"></path><path d="M49.038 45.236l-5.152-5.854-2.102 1.849-0.818-1.278c0.406-0.588 0.694-1.103 0.864-1.546 0.165-0.438 0.244-0.868 0.238-1.288-0.001-0.425-0.076-0.879-0.225-1.36-0.149-0.482-0.339-1.056-0.57-1.723v0l1.148-1.01 2.285 2.597 3.753-3.303 1.086 2.082-3.265 2.873 4.736 5.381c0.282 0.32 0.565 0.551 0.848 0.692 0.289 0.137 0.58 0.2 0.873 0.19 0.293-0.01 0.587-0.09 0.88-0.241 0.297-0.146 0.596-0.352 0.897-0.616v0c0.29-0.255 0.554-0.536 0.79-0.842 0.241-0.301 0.448-0.616 0.62-0.945v0l1.057 1.201c-0.182 0.702-0.459 1.35-0.833 1.944-0.374 0.604-0.821 1.135-1.341 1.593v0c-0.991 0.872-1.984 1.271-2.981 1.199-0.996-0.082-1.925-0.614-2.788-1.595z" fill="#eeddc1" data-fill-palette-color="accent"></path><path d="M61.31 40.178l-7.845-11.508 2.131-1.452 2.715 3.183c-0.032-0.26-0.061-0.527-0.086-0.801-0.031-0.27-0.053-0.533-0.067-0.79-0.018-0.262-0.03-0.5-0.038-0.712-0.011-0.218-0.018-0.399-0.019-0.543v0c-0.005-0.327 0.021-0.656 0.078-0.985 0.058-0.33 0.15-0.643 0.279-0.941 0.123-0.293 0.288-0.571 0.496-0.834 0.203-0.259 0.455-0.492 0.758-0.698v0c0.209-0.143 0.435-0.261 0.679-0.354 0.249-0.097 0.482-0.139 0.7-0.126v0l1.369 2.612c-0.155 0.057-0.324 0.14-0.507 0.249-0.178 0.105-0.336 0.205-0.474 0.299v0c-0.463 0.315-0.831 0.663-1.104 1.043-0.268 0.376-0.47 0.784-0.606 1.223-0.13 0.436-0.21 0.893-0.238 1.373-0.025 0.485-0.024 0.988 0.002 1.511v0l4.404 6.46z" fill="#eeddc1" data-fill-palette-color="accent"></path><path d="M72.487 33.141l-6.647-12.239 2.803-1.522 6.647 12.239zM65.93 17.736v0c-0.246 0.134-0.494 0.215-0.743 0.245-0.25 0.029-0.484 0.016-0.704-0.039-0.229-0.058-0.436-0.161-0.623-0.31-0.181-0.152-0.332-0.339-0.453-0.562v0c-0.124-0.228-0.196-0.466-0.217-0.713-0.017-0.241 0.012-0.481 0.088-0.718 0.075-0.238 0.196-0.456 0.362-0.652 0.166-0.197 0.372-0.362 0.619-0.496v0c0.24-0.13 0.482-0.209 0.725-0.235 0.244-0.026 0.478-0.006 0.705 0.062 0.223 0.061 0.429 0.169 0.619 0.323 0.193 0.146 0.35 0.33 0.471 0.552v0c0.127 0.234 0.199 0.472 0.216 0.713 0.02 0.247-0.01 0.484-0.092 0.71-0.082 0.226-0.206 0.438-0.372 0.635-0.16 0.193-0.361 0.355-0.601 0.485z" fill="#eeddc1" data-fill-palette-color="accent"></path><path d="M88.521 23.028l0.592 1.475c-0.398 0.691-0.9 1.302-1.506 1.832-0.608 0.524-1.318 0.949-2.128 1.274v0c-0.916 0.367-1.799 0.546-2.651 0.535-0.852-0.01-1.643-0.185-2.375-0.523-0.729-0.332-1.381-0.821-1.956-1.466-0.579-0.637-1.049-1.407-1.412-2.31v0c-0.427-1.064-0.633-2.116-0.619-3.156 0.02-1.042 0.224-2.011 0.611-2.906 0.391-0.904 0.954-1.711 1.689-2.423 0.734-0.711 1.603-1.268 2.605-1.669v0c0.223-0.089 0.465-0.176 0.726-0.259 0.257-0.075 0.526-0.147 0.807-0.216 0.283-0.063 0.566-0.112 0.847-0.146 0.287-0.036 0.559-0.048 0.815-0.036v0l0.388 2.472-0.211 0.225c-0.191-0.046-0.405-0.078-0.643-0.097-0.24-0.026-0.488-0.027-0.744-0.003-0.259 0.018-0.517 0.053-0.776 0.106-0.261 0.047-0.512 0.119-0.754 0.216v0c-0.52 0.208-0.964 0.505-1.334 0.891-0.363 0.383-0.637 0.837-0.821 1.363-0.184 0.526-0.258 1.112-0.221 1.759 0.028 0.642 0.185 1.319 0.47 2.03v0c0.3 0.749 0.672 1.361 1.114 1.837 0.436 0.479 0.915 0.832 1.438 1.061 0.529 0.226 1.085 0.333 1.67 0.321 0.59-0.014 1.186-0.142 1.785-0.382v0c0.377-0.151 0.786-0.369 1.225-0.653 0.448-0.28 0.904-0.664 1.369-1.152z" fill="#eeddc1" data-fill-palette-color="accent"></path><path d="M100.79 20.838v0c-0.176 0.24-0.39 0.526-0.64 0.859-0.25 0.333-0.54 0.661-0.868 0.985-0.321 0.322-0.687 0.617-1.096 0.884-0.41 0.267-0.861 0.459-1.354 0.575v0c-0.506 0.119-0.995 0.138-1.466 0.057-0.471-0.081-0.908-0.249-1.31-0.503-0.394-0.25-0.736-0.584-1.026-1.002-0.288-0.411-0.497-0.893-0.627-1.444v0c-0.137-0.584-0.154-1.179-0.05-1.786 0.104-0.606 0.381-1.192 0.83-1.756 0.443-0.563 1.086-1.087 1.93-1.573 0.839-0.478 1.924-0.873 3.255-1.186v0l0.934-0.22-0.247-1.051c-0.088-0.376-0.233-0.698-0.433-0.967-0.2-0.268-0.439-0.482-0.716-0.643-0.282-0.153-0.596-0.25-0.941-0.292-0.344-0.036-0.714-0.007-1.11 0.086v0c-0.305 0.072-0.623 0.188-0.955 0.348-0.334 0.154-0.655 0.332-0.963 0.535-0.313 0.211-0.612 0.442-0.895 0.693-0.283 0.251-0.527 0.511-0.732 0.778v0l-0.265-0.082-1.087-2.004c0.905-0.781 1.777-1.369 2.614-1.765 0.845-0.397 1.656-0.687 2.435-0.87v0c0.798-0.188 1.531-0.274 2.199-0.26 0.661 0.016 1.249 0.141 1.762 0.377 0.514 0.235 0.945 0.582 1.293 1.041 0.349 0.466 0.607 1.052 0.773 1.76v0l1.473 6.267c0.029 0.123 0.071 0.26 0.128 0.412 0.056 0.151 0.133 0.287 0.229 0.408 0.097 0.121 0.218 0.212 0.363 0.275 0.146 0.068 0.323 0.078 0.53 0.029v0c0.117-0.027 0.255-0.08 0.415-0.159 0.168-0.074 0.327-0.169 0.477-0.287v0l0.361 1.538c-0.387 0.42-0.786 0.777-1.196 1.072-0.416 0.296-0.842 0.496-1.277 0.598v0c-0.337 0.079-0.644 0.086-0.919 0.021-0.277-0.072-0.528-0.191-0.752-0.358-0.219-0.174-0.418-0.381-0.597-0.619-0.173-0.24-0.333-0.497-0.479-0.771zM100.354 19.205l-0.697-2.969-0.808 0.19c-0.889 0.209-1.588 0.438-2.098 0.689-0.516 0.251-0.898 0.519-1.146 0.803-0.247 0.291-0.385 0.59-0.415 0.899-0.03 0.308-0.006 0.628 0.071 0.959v0c0.082 0.35 0.207 0.646 0.373 0.888 0.165 0.235 0.356 0.423 0.574 0.563 0.218 0.14 0.454 0.229 0.709 0.265 0.263 0.041 0.531 0.029 0.804-0.035v0c0.208-0.049 0.416-0.125 0.624-0.229 0.21-0.097 0.424-0.233 0.643-0.408 0.211-0.18 0.43-0.399 0.657-0.657 0.227-0.259 0.463-0.578 0.709-0.958z" fill="#eeddc1" data-fill-palette-color="accent"></path><path d="M110.058 21.276l-2.561-20.889 3.156-0.387 2.561 20.889z" fill="#eeddc1" data-fill-palette-color="accent"></path><path d="M125.466 6.777l3.447 0.387 1.192 9.36 0.142 2.4 0.249 0.028 0.718-2.273 3.435-8.448 3.517 0.396 1.467 8.968 0.222 2.409 0.258 0.029 0.669-2.279 3.273-8.888 2.921 0.328-5.729 13.371-3.527-0.396-1.427-8.249-0.281-2.688-0.259-0.029-0.902 2.565-3.281 7.71-3.537-0.398z" fill="#eeddc1" data-fill-palette-color="accent"></path><path d="M153.914 25.984v0c-1.044-0.324-1.913-0.785-2.607-1.384-0.687-0.597-1.212-1.279-1.573-2.048-0.356-0.766-0.552-1.584-0.59-2.454-0.035-0.876 0.083-1.754 0.356-2.632v0c0.314-1.012 0.788-1.901 1.423-2.668 0.631-0.774 1.373-1.389 2.226-1.843 0.853-0.454 1.784-0.734 2.793-0.84 1.016-0.104 2.059 0.01 3.129 0.342v0c1.044 0.324 1.913 0.785 2.606 1.384 0.694 0.599 1.22 1.286 1.581 2.06 0.354 0.773 0.548 1.597 0.583 2.473 0.035 0.876-0.083 1.754-0.355 2.632v0c-0.316 1.019-0.792 1.914-1.43 2.687-0.635 0.766-1.382 1.375-2.241 1.828-0.851 0.448-1.783 0.721-2.798 0.818-1.006 0.093-2.04-0.025-3.103-0.355zM155.111 23.979v0c0.535 0.166 1.06 0.206 1.574 0.121 0.515-0.085 0.989-0.276 1.424-0.574 0.441-0.296 0.836-0.693 1.186-1.192 0.35-0.499 0.629-1.082 0.836-1.75v0c0.201-0.649 0.309-1.3 0.322-1.952 0.012-0.645-0.077-1.249-0.265-1.809-0.185-0.553-0.467-1.038-0.847-1.456-0.386-0.42-0.875-0.722-1.468-0.905v0c-0.547-0.17-1.076-0.208-1.586-0.115-0.515 0.085-0.99 0.279-1.427 0.583-0.436 0.304-0.83 0.709-1.182 1.214-0.35 0.499-0.628 1.079-0.833 1.741v0c-0.205 0.662-0.314 1.316-0.326 1.961-0.012 0.645 0.078 1.245 0.269 1.8 0.185 0.553 0.468 1.035 0.85 1.447 0.39 0.407 0.881 0.702 1.473 0.886z" fill="#eeddc1" data-fill-palette-color="accent"></path><path d="M165.229 29.875l6.016-12.561 2.326 1.114-1.39 3.946c0.209-0.159 0.425-0.317 0.649-0.476 0.218-0.162 0.434-0.313 0.649-0.454 0.218-0.147 0.417-0.277 0.598-0.39 0.183-0.119 0.336-0.216 0.46-0.29v0c0.28-0.169 0.578-0.311 0.891-0.426 0.314-0.116 0.632-0.193 0.953-0.231 0.315-0.041 0.639-0.038 0.971 0.01 0.326 0.045 0.654 0.147 0.984 0.305v0c0.228 0.109 0.444 0.246 0.647 0.41 0.209 0.166 0.362 0.347 0.461 0.542v0l-1.572 2.495c-0.127-0.105-0.284-0.21-0.471-0.314-0.181-0.101-0.346-0.188-0.496-0.26v0c-0.505-0.242-0.99-0.386-1.456-0.431-0.46-0.043-0.914-0.013-1.363 0.09-0.442 0.106-0.878 0.267-1.306 0.483-0.431 0.222-0.867 0.475-1.306 0.76v0l-3.377 7.051z" fill="#eeddc1" data-fill-palette-color="accent"></path><path d="M176.646 35.938l11.68-17.507 2.645 1.765-11.68 17.507zM187.458 43.152l-3.202-2.137-0.244-8.984 8.134-2.446 2.678 1.787-7.962 2.08z" fill="#eeddc1" data-fill-palette-color="accent"></path><path d="M189.872 44.557l2.026-1.39 0.272 0.057c0.131 0.361 0.284 0.724 0.458 1.089 0.173 0.355 0.365 0.694 0.574 1.018 0.205 0.32 0.418 0.616 0.639 0.889 0.226 0.277 0.453 0.518 0.681 0.723v0c0.588 0.532 1.162 0.827 1.722 0.883 0.56 0.057 1.012-0.105 1.356-0.485v0c0.237-0.262 0.355-0.546 0.353-0.853-0.001-0.307-0.072-0.636-0.212-0.988-0.14-0.342-0.33-0.703-0.571-1.082-0.231-0.38-0.47-0.772-0.717-1.175-0.242-0.398-0.463-0.81-0.664-1.234-0.2-0.415-0.335-0.837-0.403-1.268-0.068-0.421-0.047-0.847 0.064-1.277 0.106-0.425 0.351-0.851 0.736-1.276v0c0.429-0.475 0.933-0.828 1.511-1.059 0.583-0.227 1.201-0.32 1.855-0.277 0.653 0.043 1.328 0.221 2.023 0.536 0.705 0.314 1.396 0.777 2.072 1.389v0c0.168 0.152 0.357 0.336 0.566 0.552 0.213 0.211 0.43 0.443 0.651 0.697 0.215 0.249 0.427 0.507 0.633 0.775 0.202 0.273 0.379 0.54 0.529 0.802v0l-2.006 1.353-0.329-0.068c-0.108-0.268-0.239-0.54-0.395-0.816-0.165-0.275-0.338-0.535-0.521-0.781-0.187-0.241-0.375-0.47-0.565-0.686-0.19-0.217-0.364-0.397-0.523-0.54v0c-0.573-0.519-1.124-0.81-1.65-0.873-0.527-0.063-0.965 0.098-1.314 0.483v0c-0.241 0.267-0.364 0.556-0.367 0.868 0.006 0.311 0.077 0.64 0.213 0.987 0.145 0.347 0.34 0.712 0.585 1.097 0.245 0.375 0.489 0.766 0.732 1.173 0.247 0.403 0.473 0.814 0.677 1.233 0.206 0.429 0.345 0.856 0.418 1.282 0.064 0.426 0.043 0.857-0.062 1.291-0.111 0.43-0.36 0.86-0.75 1.291v0c-0.434 0.479-0.944 0.835-1.532 1.067-0.588 0.232-1.21 0.33-1.868 0.292-0.658-0.047-1.337-0.226-2.037-0.535-0.695-0.314-1.372-0.769-2.029-1.363v0c-0.539-0.487-1.058-1.061-1.559-1.72-0.496-0.664-0.92-1.358-1.272-2.081z" fill="#eeddc1" data-fill-palette-color="accent"></path><path d="M200.068 55.396l16.203-13.43 2.029 2.448-7.213 5.978c0.429 0.069 0.88 0.158 1.353 0.269 0.477 0.116 0.948 0.261 1.414 0.437 0.466 0.176 0.912 0.4 1.336 0.672 0.424 0.272 0.802 0.608 1.134 1.008v0c0.404 0.487 0.678 1.005 0.82 1.553 0.152 0.549 0.181 1.101 0.087 1.656-0.1 0.559-0.317 1.106-0.651 1.643-0.339 0.541-0.791 1.045-1.356 1.513v0l-7.143 5.921-2.035-2.455 6.866-5.691c0.364-0.302 0.64-0.617 0.827-0.945 0.191-0.323 0.307-0.648 0.347-0.976 0.031-0.328-0.01-0.654-0.122-0.977-0.108-0.318-0.28-0.62-0.518-0.908v0c-0.413-0.498-0.932-0.864-1.559-1.097-0.622-0.229-1.333-0.402-2.131-0.519v0l-7.659 6.348z" fill="#eeddc1" data-fill-palette-color="accent"></path><path d="M213.284 74.605v0c-0.539-0.951-0.857-1.882-0.952-2.793-0.092-0.906-0.007-1.762 0.255-2.57 0.265-0.802 0.682-1.533 1.251-2.192 0.574-0.663 1.261-1.221 2.061-1.675v0c0.922-0.523 1.876-0.846 2.864-0.97 0.99-0.132 1.951-0.072 2.884 0.181 0.933 0.253 1.803 0.686 2.611 1.3 0.812 0.62 1.494 1.417 2.046 2.391v0c0.539 0.951 0.857 1.882 0.952 2.793 0.096 0.911 0.009 1.773-0.258 2.584-0.271 0.805-0.694 1.539-1.268 2.202-0.574 0.663-1.261 1.221-2.062 1.675v0c-0.928 0.526-1.888 0.853-2.881 0.979-0.988 0.123-1.949 0.056-2.885-0.202-0.927-0.256-1.793-0.696-2.599-1.319-0.797-0.621-1.47-1.415-2.019-2.384zM215.53 73.964v0c0.276 0.487 0.631 0.876 1.064 1.166 0.433 0.291 0.91 0.476 1.43 0.557 0.524 0.086 1.084 0.067 1.681-0.057 0.596-0.124 1.199-0.358 1.807-0.704v0c0.591-0.335 1.115-0.736 1.572-1.201 0.45-0.462 0.799-0.963 1.045-1.501 0.244-0.529 0.37-1.076 0.38-1.641 0.006-0.57-0.144-1.125-0.45-1.664v0c-0.283-0.499-0.642-0.889-1.078-1.171-0.433-0.291-0.913-0.475-1.439-0.551-0.526-0.077-1.091-0.052-1.693 0.075-0.596 0.124-1.196 0.357-1.799 0.699v0c-0.603 0.342-1.13 0.744-1.58 1.206-0.45 0.462-0.796 0.961-1.037 1.496-0.244 0.529-0.368 1.074-0.371 1.636 0.006 0.564 0.161 1.115 0.468 1.655z" fill="#eeddc1" data-fill-palette-color="accent"></path><path d="M229.196 84.654l-6.921 2.529c-0.025 0.243-0.025 0.495 0 0.756 0.016 0.257 0.046 0.505 0.091 0.744 0.036 0.235 0.086 0.458 0.148 0.67 0.057 0.213 0.111 0.392 0.164 0.536v0c0.233 0.639 0.568 1.166 1.004 1.581 0.436 0.416 0.936 0.726 1.501 0.931 0.565 0.205 1.17 0.3 1.817 0.283 0.647-0.016 1.299-0.145 1.956-0.385v0c0.62-0.227 1.166-0.518 1.639-0.875 0.475-0.351 0.86-0.744 1.155-1.179 0.289-0.432 0.471-0.896 0.546-1.391 0.074-0.496 0.021-0.991-0.16-1.485v0c-0.215-0.588-0.588-1.112-1.117-1.572-0.521-0.455-1.129-0.836-1.823-1.143zM232.736 82.69l-2.033 1.253c0.383 0.194 0.781 0.41 1.195 0.649 0.414 0.239 0.813 0.515 1.197 0.829 0.378 0.316 0.729 0.674 1.053 1.074 0.317 0.402 0.57 0.86 0.757 1.373v0c0.293 0.801 0.378 1.579 0.257 2.333-0.119 0.76-0.388 1.462-0.806 2.105-0.422 0.651-0.966 1.23-1.633 1.736-0.664 0.512-1.397 0.915-2.199 1.208v0c-1.052 0.384-2.096 0.546-3.133 0.485-1.037-0.061-2.006-0.303-2.905-0.727-0.894-0.426-1.69-1.022-2.389-1.788-0.69-0.762-1.22-1.648-1.588-2.655v0c-0.073-0.2-0.144-0.412-0.211-0.636-0.068-0.224-0.127-0.443-0.177-0.659-0.053-0.222-0.099-0.436-0.139-0.642-0.036-0.214-0.057-0.408-0.064-0.583v0l-6.658 2.433-1.091-2.986 19.691-7.197z" fill="#eeddc1" data-fill-palette-color="accent"></path><path d="M11.965 170.356l-3.507-10.897 18.32-5.898 3.584 11.135-2.34 0.302-2.456-7.633-5.52 1.777 2.175 6.757-2.27 0.29-2.047-6.358-6.252 2.013 2.647 8.223z" fill="#eeddc1" data-fill-palette-color="accent"></path><path d="M14.871 176.697l19.091-8.857 1.338 2.885-19.091 8.856z" fill="#eeddc1" data-fill-palette-color="accent"></path><path d="M28.193 193.85l-1.346 0.845c-0.428-0.18-0.842-0.407-1.244-0.682-0.401-0.275-0.781-0.58-1.14-0.913-0.359-0.333-0.69-0.684-0.992-1.053-0.293-0.367-0.552-0.728-0.776-1.084v0c-0.518-0.824-0.874-1.667-1.069-2.528-0.193-0.871-0.207-1.72-0.042-2.547 0.156-0.83 0.499-1.617 1.032-2.361 0.529-0.749 1.256-1.415 2.182-1.997v0c0.988-0.621 1.987-1.016 2.997-1.186 1.011-0.171 1.971-0.152 2.881 0.055 0.913 0.213 1.753 0.591 2.518 1.134 0.769 0.548 1.406 1.222 1.909 2.023v0c0.418 0.666 0.698 1.356 0.841 2.07 0.142 0.714 0.129 1.414-0.038 2.102-0.166 0.687-0.497 1.351-0.991 1.992-0.5 0.645-1.176 1.235-2.029 1.771v0c-0.203 0.128-0.429 0.258-0.676 0.389-0.242 0.128-0.49 0.241-0.744 0.338v0l-4.947-7.873c-0.598 0.376-1.063 0.814-1.395 1.314-0.322 0.502-0.518 1.042-0.587 1.62-0.064 0.575-0.004 1.183 0.178 1.825 0.177 0.645 0.471 1.294 0.882 1.949v0c0.117 0.186 0.262 0.398 0.435 0.636 0.173 0.238 0.371 0.483 0.593 0.737 0.213 0.252 0.453 0.502 0.721 0.752 0.267 0.249 0.549 0.473 0.847 0.672zM27.831 183.521l3.452 5.494c0.542-0.34 0.974-0.711 1.298-1.111 0.321-0.391 0.543-0.79 0.665-1.197 0.128-0.411 0.16-0.817 0.097-1.218-0.058-0.405-0.2-0.788-0.427-1.148v0c-0.255-0.406-0.575-0.733-0.958-0.981-0.384-0.247-0.804-0.408-1.261-0.483-0.457-0.075-0.931-0.06-1.424 0.045-0.493 0.105-0.974 0.305-1.442 0.599z" fill="#eeddc1" data-fill-palette-color="accent"></path><path d="M38.814 206.62l-1.207 1.034c-0.782-0.155-1.522-0.434-2.218-0.838-0.692-0.408-1.322-0.944-1.89-1.607v0c-0.642-0.749-1.094-1.529-1.358-2.338-0.264-0.81-0.353-1.616-0.267-2.418 0.081-0.797 0.334-1.572 0.761-2.323 0.417-0.752 0.996-1.445 1.735-2.078v0c0.871-0.746 1.801-1.279 2.79-1.6 0.993-0.316 1.976-0.433 2.948-0.354 0.982 0.081 1.927 0.355 2.837 0.822 0.909 0.467 1.715 1.111 2.417 1.932v0c0.156 0.182 0.315 0.384 0.478 0.604 0.153 0.22 0.308 0.452 0.464 0.695 0.151 0.248 0.288 0.5 0.41 0.755 0.126 0.26 0.225 0.514 0.296 0.76v0l-2.217 1.162-0.281-0.128c-0.018-0.195-0.056-0.408-0.114-0.64-0.053-0.236-0.131-0.471-0.236-0.706-0.1-0.239-0.216-0.473-0.35-0.701-0.129-0.232-0.277-0.447-0.446-0.644v0c-0.364-0.425-0.788-0.751-1.272-0.978-0.479-0.221-0.998-0.335-1.555-0.34-0.557-0.005-1.136 0.113-1.736 0.356-0.599 0.233-1.19 0.598-1.773 1.096v0c-0.613 0.525-1.073 1.073-1.382 1.645-0.313 0.567-0.494 1.134-0.543 1.702-0.044 0.573 0.033 1.135 0.232 1.684 0.203 0.555 0.515 1.077 0.935 1.569v0c0.264 0.309 0.602 0.626 1.012 0.95 0.409 0.334 0.919 0.643 1.53 0.927z" fill="#eeddc1" data-fill-palette-color="accent"></path><path d="M44.925 210.938l5.152-5.854-2.102-1.85 1.164-0.974c0.635 0.328 1.183 0.548 1.643 0.661 0.456 0.108 0.892 0.132 1.308 0.072 0.422-0.055 0.862-0.187 1.321-0.396 0.459-0.209 1.004-0.47 1.636-0.785v0l1.148 1.011-2.285 2.597 3.752 3.302-1.926 1.342-3.265-2.873-4.735 5.381c-0.282 0.32-0.475 0.63-0.579 0.929-0.099 0.304-0.125 0.601-0.077 0.891 0.047 0.29 0.164 0.57 0.351 0.842 0.183 0.276 0.425 0.547 0.725 0.811v0c0.29 0.255 0.602 0.481 0.935 0.677 0.329 0.201 0.668 0.366 1.017 0.494v0l-1.057 1.201c-0.719-0.091-1.397-0.284-2.035-0.578-0.647-0.294-1.23-0.67-1.751-1.128v0c-0.991-0.872-1.513-1.807-1.567-2.805-0.045-0.998 0.364-1.988 1.227-2.968z" fill="#eeddc1" data-fill-palette-color="accent"></path><path d="M53.467 222.827l7.845-11.507 2.131 1.453-1.971 3.69c0.231-0.125 0.468-0.249 0.714-0.373 0.24-0.127 0.477-0.244 0.711-0.35 0.238-0.112 0.454-0.211 0.649-0.296 0.199-0.09 0.365-0.163 0.498-0.217v0c0.303-0.124 0.618-0.22 0.946-0.286 0.328-0.067 0.654-0.095 0.977-0.085 0.318 0.007 0.637 0.059 0.958 0.157 0.315 0.094 0.624 0.244 0.927 0.451v0c0.209 0.143 0.402 0.31 0.577 0.502 0.181 0.196 0.306 0.398 0.374 0.606v0l-1.931 2.229c-0.11-0.123-0.249-0.25-0.418-0.382-0.163-0.127-0.314-0.238-0.451-0.332v0c-0.463-0.315-0.921-0.531-1.374-0.646-0.448-0.112-0.902-0.151-1.361-0.117-0.453 0.038-0.908 0.131-1.364 0.28-0.46 0.154-0.929 0.339-1.406 0.554v0l-4.404 6.46z" fill="#eeddc1" data-fill-palette-color="accent"></path><path d="M65.842 230.595l6.647-12.239 2.802 1.522-6.646 12.239zM75.193 216.708v0c-0.246-0.134-0.449-0.297-0.61-0.491-0.16-0.193-0.277-0.397-0.35-0.611-0.076-0.223-0.102-0.454-0.08-0.692 0.029-0.235 0.104-0.463 0.225-0.685v0c0.124-0.228 0.284-0.418 0.48-0.57 0.193-0.146 0.41-0.252 0.651-0.318 0.241-0.066 0.489-0.083 0.744-0.051 0.255 0.033 0.506 0.116 0.752 0.249v0c0.24 0.13 0.438 0.291 0.592 0.481 0.155 0.19 0.265 0.398 0.332 0.624 0.07 0.22 0.092 0.452 0.066 0.696-0.017 0.241-0.086 0.473-0.207 0.695v0c-0.127 0.234-0.287 0.424-0.48 0.57-0.196 0.151-0.411 0.254-0.646 0.309-0.234 0.055-0.479 0.066-0.734 0.033-0.25-0.029-0.494-0.109-0.735-0.239z" fill="#eeddc1" data-fill-palette-color="accent"></path><path d="M85.466 236.088l-0.592 1.475c-0.765 0.224-1.55 0.319-2.354 0.284-0.802-0.042-1.608-0.225-2.419-0.55v0c-0.916-0.367-1.677-0.849-2.286-1.445-0.608-0.596-1.06-1.269-1.355-2.02-0.298-0.744-0.431-1.548-0.4-2.412 0.022-0.86 0.214-1.742 0.576-2.645v0c0.427-1.064 1.005-1.967 1.733-2.709 0.735-0.739 1.552-1.299 2.451-1.677 0.908-0.383 1.873-0.577 2.895-0.584 1.022-0.006 2.035 0.191 3.037 0.593v0c0.223 0.089 0.457 0.194 0.703 0.315 0.238 0.124 0.482 0.258 0.733 0.402 0.249 0.15 0.486 0.31 0.712 0.479 0.233 0.172 0.437 0.351 0.614 0.537v0l-1.428 2.056-0.308 0.016c-0.106-0.165-0.239-0.336-0.397-0.514-0.156-0.185-0.334-0.357-0.536-0.517-0.199-0.166-0.411-0.319-0.634-0.459-0.221-0.146-0.453-0.268-0.694-0.365v0c-0.52-0.208-1.046-0.301-1.58-0.278-0.527 0.025-1.039 0.165-1.536 0.418-0.497 0.253-0.955 0.626-1.375 1.118-0.424 0.484-0.778 1.081-1.063 1.793v0c-0.3 0.749-0.455 1.448-0.465 2.097-0.016 0.647 0.087 1.234 0.307 1.76 0.226 0.529 0.554 0.991 0.984 1.386 0.437 0.398 0.955 0.717 1.555 0.958v0c0.377 0.151 0.823 0.276 1.336 0.375 0.517 0.107 1.113 0.145 1.786 0.113z" fill="#eeddc1" data-fill-palette-color="accent"></path><path d="M98.542 240.226v0c-0.265 0.136-0.583 0.298-0.956 0.484-0.372 0.186-0.778 0.351-1.216 0.495-0.431 0.145-0.89 0.246-1.375 0.303-0.486 0.057-0.975 0.027-1.469-0.089v0c-0.506-0.119-0.952-0.32-1.337-0.602-0.386-0.282-0.702-0.627-0.948-1.034-0.242-0.399-0.399-0.85-0.473-1.354-0.075-0.497-0.048-1.021 0.082-1.572v0c0.137-0.584 0.388-1.124 0.751-1.621 0.363-0.497 0.872-0.897 1.525-1.203 0.647-0.307 1.457-0.489 2.43-0.548 0.964-0.054 2.112 0.075 3.442 0.388v0l0.934 0.22 0.247-1.051c0.088-0.376 0.103-0.729 0.043-1.058-0.06-0.329-0.178-0.627-0.354-0.895-0.185-0.263-0.422-0.49-0.713-0.681-0.292-0.185-0.636-0.324-1.032-0.417v0c-0.305-0.072-0.642-0.11-1.01-0.115-0.367-0.011-0.734 0.005-1.1 0.05-0.374 0.049-0.744 0.123-1.11 0.222-0.366 0.099-0.699 0.222-1.002 0.37v0l-0.201-0.191-0.081-2.278c1.158-0.296 2.201-0.434 3.128-0.415 0.933 0.021 1.789 0.123 2.567 0.305v0c0.798 0.188 1.493 0.436 2.084 0.747 0.585 0.309 1.055 0.683 1.41 1.122 0.355 0.44 0.586 0.942 0.693 1.509 0.105 0.572 0.074 1.212-0.091 1.919v0l-1.474 6.268c-0.029 0.123-0.052 0.265-0.069 0.425-0.017 0.16-0.009 0.316 0.024 0.468 0.033 0.152 0.1 0.287 0.202 0.407 0.1 0.126 0.254 0.214 0.462 0.263v0c0.117 0.027 0.264 0.042 0.442 0.042 0.183 0.009 0.368-0.006 0.555-0.044v0l-0.362 1.537c-0.534 0.203-1.05 0.345-1.548 0.427-0.505 0.08-0.975 0.069-1.41-0.033v0c-0.337-0.079-0.615-0.21-0.832-0.391-0.216-0.188-0.387-0.406-0.514-0.655-0.118-0.254-0.205-0.527-0.259-0.821-0.048-0.292-0.076-0.593-0.085-0.903zM98.88 238.57l0.697-2.969-0.807-0.19c-0.889-0.209-1.617-0.315-2.185-0.318-0.574-0.005-1.035 0.065-1.384 0.209-0.35 0.15-0.608 0.357-0.772 0.619-0.164 0.263-0.286 0.559-0.364 0.89v0c-0.082 0.35-0.103 0.671-0.061 0.962 0.043 0.284 0.13 0.537 0.263 0.76 0.132 0.223 0.305 0.407 0.517 0.553 0.217 0.154 0.462 0.263 0.734 0.326v0c0.208 0.049 0.428 0.073 0.661 0.074 0.231 0.006 0.484-0.02 0.758-0.079 0.269-0.067 0.563-0.166 0.881-0.296 0.318-0.131 0.672-0.311 1.062-0.541z" fill="#eeddc1" data-fill-palette-color="accent"></path><path d="M108.364 244.044l2.561-20.889 3.156 0.387-2.561 20.889z" fill="#eeddc1" data-fill-palette-color="accent"></path><path d="M123.91 230.88l3.447-0.387 3.24 8.862 0.672 2.308 0.248-0.027 0.196-2.377 1.473-8.999 3.517-0.395 3.422 8.419 0.751 2.3 0.259-0.03 0.146-2.37 1.218-9.393 2.92-0.328-2.617 14.309-3.527 0.396-3.222-7.727-0.872-2.558-0.258 0.029-0.31 2.701-1.488 8.246-3.537 0.398z" fill="#eeddc1" data-fill-palette-color="accent"></path><path d="M158.191 239.312v0c-1.044 0.324-2.021 0.435-2.932 0.334-0.904-0.103-1.723-0.369-2.456-0.798-0.727-0.431-1.351-0.994-1.875-1.691-0.525-0.703-0.923-1.493-1.195-2.371v0c-0.314-1.012-0.426-2.014-0.335-3.005 0.082-0.995 0.346-1.922 0.792-2.779 0.446-0.857 1.056-1.615 1.828-2.273 0.779-0.66 1.704-1.156 2.773-1.488v0c1.044-0.324 2.021-0.435 2.933-0.333 0.911 0.101 1.734 0.37 2.468 0.804 0.729 0.437 1.355 1.007 1.88 1.71 0.525 0.703 0.923 1.493 1.196 2.372v0c0.316 1.019 0.429 2.027 0.341 3.024-0.09 0.991-0.362 1.916-0.814 2.775-0.448 0.851-1.063 1.603-1.844 2.257-0.777 0.646-1.697 1.133-2.76 1.462zM158.044 236.982v0c0.535-0.166 0.99-0.429 1.367-0.79 0.377-0.361 0.66-0.787 0.849-1.279 0.196-0.493 0.297-1.045 0.304-1.654 0.007-0.609-0.094-1.248-0.301-1.916v0c-0.201-0.649-0.481-1.247-0.838-1.792-0.355-0.539-0.77-0.986-1.243-1.342-0.465-0.351-0.972-0.592-1.522-0.721-0.556-0.128-1.13-0.1-1.722 0.084v0c-0.547 0.17-1.005 0.437-1.373 0.802-0.377 0.361-0.659 0.79-0.847 1.289-0.188 0.498-0.284 1.054-0.288 1.67-0.007 0.609 0.093 1.245 0.298 1.906v0c0.205 0.662 0.486 1.263 0.841 1.802 0.355 0.539 0.769 0.983 1.24 1.332 0.465 0.351 0.971 0.589 1.519 0.712 0.552 0.115 1.124 0.081 1.716-0.103z" fill="#eeddc1" data-fill-palette-color="accent"></path><path d="M171.243 234.183l-6.015-12.561 2.326-1.114 2.202 3.557c0.007-0.262 0.019-0.53 0.036-0.805 0.011-0.271 0.028-0.535 0.054-0.79 0.022-0.262 0.046-0.499 0.07-0.71 0.022-0.217 0.043-0.397 0.063-0.54v0c0.044-0.324 0.12-0.645 0.227-0.962 0.107-0.317 0.246-0.613 0.417-0.887 0.166-0.271 0.371-0.521 0.617-0.75 0.239-0.225 0.524-0.417 0.855-0.576v0c0.228-0.109 0.47-0.192 0.724-0.247 0.26-0.058 0.497-0.065 0.711-0.019v0l0.959 2.789c-0.162 0.033-0.341 0.09-0.54 0.17-0.192 0.077-0.363 0.152-0.513 0.223v0c-0.505 0.242-0.921 0.53-1.249 0.864-0.322 0.331-0.583 0.704-0.784 1.119-0.195 0.411-0.342 0.851-0.443 1.32-0.098 0.475-0.173 0.973-0.226 1.494v0l3.377 7.052z" fill="#eeddc1" data-fill-palette-color="accent"></path><path d="M184.373 227.144l-11.679-17.507 2.644-1.764 11.68 17.507zM195.185 219.931l-3.202 2.137-8.389-3.225 0.865-8.45 2.678-1.786-1.137 8.15z" fill="#eeddc1" data-fill-palette-color="accent"></path><path d="M198.327 216.291l-1.18-2.155 0.084-0.264c0.373-0.095 0.749-0.21 1.128-0.347 0.37-0.137 0.727-0.294 1.072-0.47 0.339-0.172 0.655-0.354 0.947-0.548 0.298-0.197 0.56-0.399 0.788-0.604v0c0.588-0.532 0.939-1.074 1.051-1.625 0.113-0.551-0.003-1.017-0.348-1.398v0c-0.237-0.262-0.508-0.408-0.813-0.437-0.305-0.029-0.64 0.008-1.004 0.112-0.354 0.105-0.733 0.258-1.134 0.46-0.401 0.192-0.815 0.391-1.24 0.597-0.421 0.201-0.852 0.38-1.294 0.536-0.433 0.158-0.867 0.249-1.302 0.275-0.426 0.026-0.848-0.038-1.265-0.191-0.413-0.148-0.811-0.435-1.195-0.86v0c-0.429-0.475-0.73-1.011-0.904-1.609-0.168-0.603-0.198-1.227-0.09-1.873 0.108-0.646 0.353-1.299 0.735-1.96 0.383-0.67 0.913-1.311 1.59-1.923v0c0.168-0.152 0.37-0.321 0.606-0.508 0.231-0.191 0.484-0.384 0.758-0.578 0.269-0.189 0.547-0.374 0.835-0.552 0.292-0.174 0.575-0.323 0.85-0.446v0l1.146 2.131-0.101 0.321c-0.278 0.08-0.561 0.184-0.85 0.311-0.29 0.136-0.566 0.283-0.829 0.44-0.258 0.162-0.505 0.326-0.74 0.494-0.235 0.168-0.431 0.323-0.59 0.466v0c-0.573 0.519-0.918 1.037-1.033 1.555-0.116 0.518 0.001 0.97 0.35 1.355v0c0.241 0.267 0.517 0.418 0.826 0.452 0.31 0.025 0.645-0.013 1.004-0.113 0.359-0.109 0.742-0.267 1.149-0.473 0.397-0.207 0.811-0.41 1.241-0.61 0.426-0.205 0.857-0.389 1.295-0.551 0.447-0.162 0.886-0.258 1.317-0.288 0.43-0.021 0.857 0.043 1.278 0.191 0.417 0.153 0.82 0.445 1.209 0.875v0c0.434 0.479 0.737 1.023 0.91 1.631 0.172 0.608 0.207 1.237 0.103 1.888-0.113 0.65-0.358 1.308-0.736 1.973-0.382 0.66-0.902 1.288-1.559 1.883v0c-0.539 0.487-1.161 0.947-1.867 1.379-0.71 0.427-1.443 0.779-2.198 1.058z" fill="#eeddc1" data-fill-palette-color="accent"></path><path d="M210.787 204.99l-16.203-13.431 2.029-2.448 7.213 5.979c-0.012-0.434-0.008-0.894 0.013-1.379 0.025-0.49 0.081-0.98 0.167-1.471 0.087-0.491 0.224-0.97 0.413-1.438 0.188-0.467 0.448-0.901 0.78-1.301v0c0.404-0.487 0.862-0.852 1.374-1.094 0.511-0.251 1.048-0.382 1.611-0.392 0.568-0.006 1.146 0.106 1.735 0.334 0.595 0.233 1.174 0.584 1.739 1.052v0l7.143 5.921-2.035 2.455-6.867-5.691c-0.364-0.302-0.725-0.514-1.082-0.637-0.353-0.128-0.694-0.181-1.023-0.16-0.328 0.031-0.641 0.131-0.937 0.301-0.292 0.165-0.558 0.391-0.796 0.678v0c-0.413 0.498-0.676 1.076-0.789 1.735-0.109 0.654-0.147 1.384-0.115 2.19v0l7.659 6.349z" fill="#eeddc1" data-fill-palette-color="accent"></path><path d="M225.847 184.022v0c-0.539 0.951-1.176 1.701-1.909 2.25-0.73 0.544-1.509 0.91-2.337 1.1-0.824 0.184-1.666 0.201-2.523 0.052-0.864-0.153-1.695-0.456-2.495-0.91v0c-0.922-0.523-1.689-1.176-2.302-1.961-0.622-0.782-1.063-1.638-1.325-2.568-0.262-0.93-0.336-1.9-0.224-2.908 0.116-1.015 0.45-2.009 1.003-2.983v0c0.539-0.951 1.176-1.701 1.909-2.251 0.733-0.55 1.517-0.917 2.35-1.104 0.83-0.18 1.677-0.194 2.541-0.041 0.864 0.153 1.695 0.456 2.495 0.91v0c0.928 0.526 1.701 1.183 2.319 1.97 0.613 0.784 1.048 1.644 1.307 2.581 0.256 0.927 0.323 1.896 0.201 2.907-0.124 1.002-0.461 1.988-1.01 2.956zM224.144 182.424v0c0.276-0.487 0.428-0.991 0.455-1.512 0.027-0.521-0.058-1.025-0.256-1.514-0.195-0.494-0.499-0.965-0.911-1.413-0.412-0.448-0.923-0.845-1.532-1.19v0c-0.591-0.335-1.204-0.579-1.837-0.733-0.628-0.149-1.236-0.192-1.825-0.127-0.579 0.062-1.114 0.234-1.603 0.516-0.493 0.288-0.892 0.701-1.198 1.241v0c-0.283 0.499-0.433 1.007-0.451 1.525-0.027 0.521 0.061 1.027 0.265 1.518 0.204 0.491 0.515 0.963 0.933 1.415 0.412 0.448 0.92 0.844 1.523 1.186v0c0.603 0.342 1.218 0.588 1.847 0.737 0.628 0.149 1.233 0.19 1.815 0.122 0.579-0.062 1.111-0.236 1.595-0.521 0.481-0.294 0.875-0.711 1.18-1.25z" fill="#eeddc1" data-fill-palette-color="accent"></path><path d="M223.624 164.81l6.92 2.53c0.176-0.17 0.338-0.362 0.488-0.578 0.154-0.206 0.29-0.415 0.41-0.627 0.124-0.203 0.23-0.406 0.318-0.608 0.094-0.2 0.168-0.372 0.221-0.515v0c0.233-0.639 0.318-1.257 0.252-1.856-0.065-0.599-0.247-1.158-0.546-1.679-0.299-0.521-0.701-0.984-1.207-1.389-0.505-0.405-1.086-0.727-1.743-0.967v0c-0.62-0.227-1.225-0.356-1.817-0.387-0.589-0.038-1.137 0.014-1.643 0.155-0.5 0.144-0.938 0.381-1.314 0.712-0.376 0.331-0.655 0.743-0.836 1.238v0c-0.215 0.588-0.268 1.229-0.159 1.922 0.105 0.684 0.323 1.367 0.656 2.049zM219.651 164.029l2.362 0.352c-0.168-0.395-0.333-0.817-0.495-1.266-0.162-0.45-0.289-0.918-0.38-1.406-0.085-0.485-0.123-0.985-0.112-1.499 0.017-0.512 0.119-1.025 0.307-1.538v0c0.293-0.801 0.729-1.451 1.308-1.949 0.582-0.504 1.239-0.867 1.973-1.088 0.742-0.225 1.531-0.317 2.368-0.274 0.838 0.037 1.658 0.201 2.459 0.494v0c1.052 0.384 1.954 0.934 2.707 1.65 0.753 0.715 1.337 1.525 1.753 2.428 0.409 0.902 0.633 1.871 0.672 2.907 0.036 1.028-0.13 2.046-0.499 3.054v0c-0.073 0.2-0.156 0.408-0.248 0.623-0.093 0.215-0.189 0.421-0.29 0.617-0.103 0.204-0.205 0.397-0.308 0.58-0.111 0.187-0.22 0.349-0.327 0.487v0l6.658 2.434-1.091 2.986-19.692-7.198z" fill="#eeddc1" data-fill-palette-color="accent"></path><path d="M2.523 125.75c0-4.438 3.598-8.037 8.037-8.036 4.438 0 8.037 3.598 8.036 8.036 0 4.438-3.598 8.037-8.036 8.037-4.438 0-8.037-3.598-8.037-8.037z" fill="#eeddc1" data-fill-palette-color="accent"></path><path d="M225.835 125.75c0-4.438 3.598-8.037 8.037-8.036 4.438 0 8.037 3.598 8.036 8.036 0 4.438-3.598 8.037-8.036 8.037-4.438 0-8.037-3.598-8.037-8.037z" fill="#eeddc1" data-fill-palette-color="accent"></path></g><g id="text-1"></g></svg></g></svg></g><g></g></svg></g><defs></defs></svg><rect width="285.2235409498193" height="247.2" fill="none" stroke="none" visibility="hidden"></rect></g></svg></g></svg>